<svg xmlns="http://www.w3.org/2000/svg" xmlns:xlink="http://www.w3.org/1999/xlink" width="600" zoomAndPan="magnify" viewBox="0 0 450 449.999984" height="600" preserveAspectRatio="xMidYMid meet" version="1.0"><defs><clipPath id="9a6849815c"><path d="M 395.4375 149.230469 L 435.710938 149.230469 L 435.710938 184 L 395.4375 184 Z M 395.4375 149.230469 " clip-rule="nonzero"/></clipPath><clipPath id="f969d6fa82"><path d="M 396 149.230469 L 435.710938 149.230469 L 435.710938 182.484375 L 396 182.484375 Z M 396 149.230469 " clip-rule="nonzero"/></clipPath><clipPath id="3d0320f88f"><path d="M 36.152344 266.035156 L 85.652344 266.035156 L 85.652344 389.046875 L 36.152344 389.046875 Z M 36.152344 266.035156 " clip-rule="nonzero"/></clipPath><clipPath id="f4f4aca360"><path d="M 365.570312 266.035156 L 415 266.035156 L 415 389.046875 L 365.570312 389.046875 Z M 365.570312 266.035156 " clip-rule="nonzero"/></clipPath><clipPath id="e0f08e5d27"><path d="M 36 60.5625 L 415 60.5625 L 415 342 L 36 342 Z M 36 60.5625 " clip-rule="nonzero"/></clipPath><clipPath id="fbbf4abc00"><path d="M 135.300781 126.679688 L 139.050781 126.679688 L 139.050781 130.429688 L 135.300781 130.429688 Z M 135.300781 126.679688 " clip-rule="nonzero"/></clipPath><clipPath id="e8b1c6650e"><path d="M 137.175781 126.679688 C 138.210938 126.679688 139.050781 127.519531 139.050781 128.554688 C 139.050781 129.589844 138.210938 130.429688 137.175781 130.429688 C 136.140625 130.429688 135.300781 129.589844 135.300781 128.554688 C 135.300781 127.519531 136.140625 126.679688 137.175781 126.679688 Z M 137.175781 126.679688 " clip-rule="nonzero"/></clipPath></defs><path fill="#dc4437" d="M 66.003906 163.28125 L 52.617188 163.28125 L 48.96875 178.84375 L 60.9375 183.300781 L 66.003906 163.28125 " fill-opacity="1" fill-rule="nonzero"/><path fill="#dc4437" d="M 50.183594 181.148438 C 46.730469 185.429688 23.804688 183.300781 19.679688 182.015625 C 14.34375 180.34375 14.875 158.0625 18.117188 156.34375 C 27.070312 151.589844 54.683594 145.917969 55.171875 152.589844 C 55.855469 161.816406 55.660156 174.351562 50.183594 181.148438 " fill-opacity="1" fill-rule="nonzero"/><path fill="#d3362d" d="M 21.960938 160.179688 C 28.941406 156.472656 47.292969 152.199219 55.25 153.679688 C 55.230469 153.308594 55.207031 152.945312 55.171875 152.589844 C 54.683594 145.917969 27.070312 151.589844 18.117188 156.34375 C 14.875 158.0625 14.34375 180.34375 19.679688 182.015625 C 19.972656 182.105469 20.382812 182.207031 20.855469 182.300781 C 18.542969 175.523438 19.417969 161.527344 21.960938 160.179688 " fill-opacity="1" fill-rule="nonzero"/><path fill="#dc4437" d="M 385.367188 163.28125 L 398.753906 163.28125 L 402.414062 178.84375 L 390.441406 183.300781 L 385.367188 163.28125 " fill-opacity="1" fill-rule="nonzero"/><g clip-path="url(#9a6849815c)"><path fill="#dc4437" d="M 401.1875 181.148438 C 404.640625 185.429688 427.5625 183.300781 431.695312 182.015625 C 437.039062 180.34375 436.503906 158.0625 433.25 156.34375 C 424.320312 151.589844 396.691406 145.910156 396.199219 152.589844 C 395.511719 161.816406 395.710938 174.351562 401.1875 181.148438 " fill-opacity="1" fill-rule="nonzero"/></g><g clip-path="url(#f969d6fa82)"><path fill="#d3362d" d="M 433.25 156.34375 C 424.320312 151.589844 396.691406 145.910156 396.199219 152.589844 C 396.175781 152.945312 396.144531 153.308594 396.125 153.679688 C 404.089844 152.199219 422.4375 156.472656 429.414062 160.179688 C 431.964844 161.527344 432.839844 175.523438 430.523438 182.300781 C 430.996094 182.207031 431.40625 182.105469 431.695312 182.015625 C 437.039062 180.34375 436.503906 158.0625 433.25 156.34375 " fill-opacity="1" fill-rule="nonzero"/></g><path fill="#4d1f0f" d="M 111.050781 353.429688 C 111.050781 359.011719 107.167969 363.582031 102.421875 363.582031 L 79.058594 363.582031 C 74.308594 363.582031 70.429688 359.011719 70.429688 353.429688 L 70.429688 271.339844 C 70.429688 265.761719 74.308594 261.191406 79.058594 261.191406 L 102.421875 261.191406 C 107.167969 261.191406 111.050781 265.761719 111.050781 271.339844 L 111.050781 353.429688 " fill-opacity="1" fill-rule="nonzero"/><g clip-path="url(#3d0320f88f)"><path fill="#663f30" d="M 85.480469 376.859375 C 85.480469 383.566406 80.832031 389.042969 75.132812 389.042969 L 47.136719 389.042969 C 41.445312 389.042969 36.789062 383.566406 36.789062 376.859375 L 36.789062 278.449219 C 36.789062 271.75 41.445312 266.273438 47.136719 266.273438 L 75.132812 266.273438 C 80.832031 266.273438 85.480469 271.75 85.480469 278.449219 L 85.480469 376.859375 " fill-opacity="1" fill-rule="nonzero"/></g><path fill="#4d1f0f" d="M 340.324219 353.429688 C 340.324219 359.011719 344.210938 363.582031 348.957031 363.582031 L 372.320312 363.582031 C 377.058594 363.582031 380.945312 359.011719 380.945312 353.429688 L 380.945312 271.339844 C 380.945312 265.761719 377.058594 261.191406 372.320312 261.191406 L 348.957031 261.191406 C 344.210938 261.191406 340.324219 265.761719 340.324219 271.339844 L 340.324219 353.429688 " fill-opacity="1" fill-rule="nonzero"/><g clip-path="url(#f4f4aca360)"><path fill="#663f30" d="M 365.886719 376.859375 C 365.886719 383.566406 370.542969 389.042969 376.238281 389.042969 L 404.242188 389.042969 C 409.9375 389.042969 414.597656 383.566406 414.597656 376.859375 L 414.597656 278.449219 C 414.597656 271.75 409.9375 266.273438 404.242188 266.273438 L 376.238281 266.273438 C 370.542969 266.273438 365.886719 271.75 365.886719 278.449219 L 365.886719 376.859375 " fill-opacity="1" fill-rule="nonzero"/></g><path fill="#582a1a" d="M 404.242188 266.273438 L 376.238281 266.273438 C 370.542969 266.273438 365.886719 271.75 365.886719 278.449219 L 365.886719 358.992188 C 381.351562 359.320312 390.75 359.699219 393.453125 360.074219 C 394.84375 360.289062 396.257812 360.402344 397.660156 360.402344 L 397.675781 360.402344 C 403.824219 360.402344 409.703125 358.230469 414.597656 354.269531 L 414.597656 278.449219 C 414.597656 271.75 409.9375 266.273438 404.242188 266.273438 " fill-opacity="1" fill-rule="nonzero"/><path fill="#582a1a" d="M 85.480469 278.449219 C 85.480469 271.75 80.832031 266.273438 75.132812 266.273438 L 47.136719 266.273438 C 41.445312 266.273438 36.789062 271.75 36.789062 278.449219 L 36.789062 354.261719 C 41.675781 358.230469 47.550781 360.402344 53.707031 360.402344 C 55.105469 360.402344 56.527344 360.292969 57.867188 360.082031 C 60.589844 359.707031 70.003906 359.328125 85.480469 358.992188 L 85.480469 278.449219 " fill-opacity="1" fill-rule="nonzero"/><g clip-path="url(#e0f08e5d27)"><path fill="#dc4437" d="M 413.164062 226.578125 C 412.871094 221.496094 395.25 197.816406 393.996094 191.917969 C 383.125 140.9375 357.160156 89.75 345.90625 76.980469 C 334.644531 64.214844 241.507812 60.5625 225.683594 60.5625 C 209.867188 60.5625 116.738281 64.214844 105.46875 76.980469 C 94.207031 89.75 68.25 140.9375 57.382812 191.917969 C 56.125 197.816406 38.515625 221.496094 38.214844 226.578125 C 37.910156 231.664062 29.992188 345.042969 54.945312 341.113281 C 64.929688 339.554688 142.898438 338.773438 225.683594 338.773438 C 308.46875 338.773438 386.449219 339.554688 396.429688 341.113281 C 421.386719 345.042969 413.472656 231.664062 413.164062 226.578125 " fill-opacity="1" fill-rule="nonzero"/></g><path fill="#e35b4f" d="M 371.082031 165.671875 L 225.683594 156.023438 L 80.296875 165.671875 C 59.460938 193.914062 70.851562 206.050781 77.902344 207.820312 C 87.613281 210.246094 95.960938 215.535156 113.570312 212.238281 C 152.214844 205.019531 299.164062 205.019531 337.808594 212.238281 C 355.414062 215.535156 363.765625 210.246094 373.472656 207.820312 C 380.519531 206.050781 390.242188 188.628906 371.082031 165.671875 " fill-opacity="1" fill-rule="nonzero"/><path fill="#e6e6e6" d="M 62.554688 207.632812 C 58.601562 210.15625 55.074219 237.769531 57.484375 240.058594 C 61.953125 244.289062 132.628906 258.792969 132.765625 250.199219 C 132.964844 237.480469 124.492188 217.738281 122.816406 216.335938 C 117.140625 211.613281 68.605469 203.757812 62.554688 207.632812 " fill-opacity="1" fill-rule="nonzero"/><path fill="#b2b2b2" d="M 68.324219 213.378906 C 73.675781 209.953125 112.402344 215.734375 125.085938 220.390625 C 124.066406 218.167969 123.242188 216.695312 122.816406 216.335938 C 117.140625 211.613281 68.605469 203.757812 62.554688 207.632812 C 58.601562 210.15625 55.074219 237.769531 57.484375 240.058594 C 58.082031 240.617188 59.871094 241.371094 62.480469 242.210938 C 62.167969 234.09375 65.101562 215.441406 68.324219 213.378906 " fill-opacity="1" fill-rule="nonzero"/><path fill="#4d4d4d" d="M 91.957031 297.828125 C 91.957031 302.738281 87.96875 306.722656 83.046875 306.722656 C 78.136719 306.722656 74.152344 302.738281 74.152344 297.828125 C 74.152344 292.914062 78.136719 288.933594 83.046875 288.933594 C 87.96875 288.933594 91.957031 292.914062 91.957031 297.828125 " fill-opacity="1" fill-rule="nonzero"/><path fill="#e6e6e6" d="M 83.046875 303.5625 C 79.890625 303.5625 77.316406 300.980469 77.316406 297.828125 C 77.316406 294.671875 79.890625 292.09375 83.046875 292.09375 C 86.214844 292.09375 88.796875 294.671875 88.796875 297.828125 C 88.796875 300.980469 86.214844 303.5625 83.046875 303.5625 " fill-opacity="1" fill-rule="nonzero"/><path fill="#29b6f6" d="M 344.792969 85.398438 C 334.722656 80.726562 251.457031 76.070312 225.683594 76.070312 L 225.683594 76.078125 C 199.921875 76.078125 116.660156 80.726562 106.589844 85.398438 C 106.589844 85.398438 72.910156 157.957031 77.769531 165.671875 C 82.648438 173.363281 106.988281 162.421875 225.683594 162.421875 C 344.386719 162.421875 368.734375 173.363281 373.601562 165.671875 C 378.464844 157.957031 344.792969 85.398438 344.792969 85.398438 " fill-opacity="1" fill-rule="nonzero"/><path fill="#e6e6e6" d="M 388.820312 207.632812 C 392.769531 210.15625 396.300781 237.769531 393.890625 240.058594 C 389.425781 244.289062 318.742188 258.792969 318.613281 250.199219 C 318.40625 237.480469 326.875 217.738281 328.550781 216.335938 C 334.238281 211.613281 382.777344 203.757812 388.820312 207.632812 " fill-opacity="1" fill-rule="nonzero"/><path fill="#b2b2b2" d="M 388.820312 207.632812 C 382.777344 203.757812 334.238281 211.613281 328.550781 216.335938 C 328.140625 216.695312 327.304688 218.167969 326.289062 220.390625 C 338.980469 215.734375 377.703125 209.953125 383.058594 213.378906 C 386.277344 215.441406 389.210938 234.09375 388.898438 242.210938 C 391.503906 241.371094 393.289062 240.617188 393.890625 240.058594 C 396.300781 237.769531 392.769531 210.15625 388.820312 207.632812 " fill-opacity="1" fill-rule="nonzero"/><path fill="#b2b2b2" d="M 225.683594 213.808594 C 209.871094 213.808594 134.382812 215.03125 134.382812 215.03125 C 137.125 218.984375 145.949219 250.582031 153.5625 252.867188 C 161.164062 255.160156 195.554688 258.800781 225.683594 258.800781 C 255.820312 258.800781 290.210938 255.160156 297.824219 252.867188 C 305.421875 250.582031 314.253906 218.984375 316.988281 215.03125 C 316.988281 215.03125 241.5 213.808594 225.683594 213.808594 " fill-opacity="1" fill-rule="nonzero"/><path fill="#808080" d="M 297.824219 244.84375 C 290.210938 246.84375 255.820312 250.03125 225.683594 250.03125 C 195.554688 250.03125 161.164062 246.84375 153.5625 244.84375 C 147.148438 243.148438 139.871094 223.277344 136.097656 214.992188 C 134.992188 215.011719 134.382812 215.03125 134.382812 215.03125 C 137.125 218.984375 145.949219 250.582031 153.5625 252.867188 C 161.164062 255.160156 195.554688 258.800781 225.683594 258.800781 C 255.820312 258.800781 290.210938 255.160156 297.824219 252.867188 C 305.421875 250.582031 314.253906 218.984375 316.988281 215.03125 C 316.988281 215.03125 316.378906 215.011719 315.277344 214.992188 C 311.503906 223.277344 304.226562 243.148438 297.824219 244.84375 " fill-opacity="1" fill-rule="nonzero"/><path fill="#4d4d4d" d="M 225.683594 295.289062 C 202.253906 295.289062 123.632812 295.597656 117.339844 293.769531 C 117.339844 293.769531 128.59375 324.175781 137.425781 323.878906 C 146.253906 323.566406 218.683594 323.878906 225.683594 323.878906 C 232.6875 323.878906 305.121094 323.566406 313.945312 323.878906 C 322.777344 324.175781 334.035156 293.769531 334.035156 293.769531 C 327.746094 295.597656 249.132812 295.289062 225.683594 295.289062 " fill-opacity="1" fill-rule="nonzero"/><path fill="#333333" d="M 331.445312 300.160156 C 332.125 298.566406 332.691406 297.183594 333.128906 296.101562 L 333.136719 296.089844 C 333.417969 295.382812 333.640625 294.808594 333.789062 294.425781 L 333.835938 294.3125 C 333.886719 294.175781 333.929688 294.054688 333.964844 293.96875 L 333.988281 293.890625 L 334.035156 293.769531 C 327.746094 295.597656 249.132812 295.289062 225.683594 295.289062 C 202.253906 295.289062 123.632812 295.597656 117.339844 293.769531 C 117.339844 293.769531 117.363281 293.820312 117.390625 293.902344 L 117.417969 293.957031 C 117.445312 294.042969 117.488281 294.167969 117.550781 294.324219 L 117.585938 294.425781 C 117.734375 294.804688 117.949219 295.355469 118.226562 296.035156 L 118.273438 296.164062 C 118.414062 296.503906 118.5625 296.875 118.730469 297.273438 L 118.734375 297.292969 C 119.074219 298.128906 119.472656 299.082031 119.929688 300.132812 L 119.996094 300.277344 C 123.855469 309.199219 131.238281 324.082031 137.425781 323.878906 C 138.359375 323.84375 140.039062 323.816406 142.238281 323.800781 C 136.386719 322.714844 129.664062 309.492188 126.363281 302.210938 C 149.019531 303.167969 206.273438 302.96875 225.683594 302.96875 C 245.105469 302.96875 302.355469 303.167969 325.015625 302.210938 C 321.714844 309.492188 314.984375 322.714844 309.140625 323.800781 C 311.34375 323.816406 313.015625 323.84375 313.945312 323.878906 C 320.144531 324.082031 327.539062 309.171875 331.390625 300.257812 L 331.445312 300.160156 " fill-opacity="1" fill-rule="nonzero"/><path fill="#e35b4f" d="M 225.972656 265.027344 C 201.566406 265.027344 76.46875 258.445312 48.96875 249.066406 C 39.78125 245.941406 40.980469 273.046875 48.96875 274.011719 C 66.703125 276.140625 141.003906 284.078125 225.972656 284.078125 L 225.972656 265.027344 " fill-opacity="1" fill-rule="nonzero"/><path fill="#e35b4f" d="M 225.972656 265.027344 C 250.382812 265.027344 375.472656 258.445312 402.980469 249.066406 C 412.164062 245.941406 410.964844 273.046875 402.980469 274.011719 C 385.25 276.140625 310.949219 284.078125 225.972656 284.078125 L 225.972656 265.027344 " fill-opacity="1" fill-rule="nonzero"/><path fill="#4d4d4d" d="M 377.230469 297.828125 C 377.230469 302.738281 373.246094 306.722656 368.324219 306.722656 C 363.410156 306.722656 359.425781 302.738281 359.425781 297.828125 C 359.425781 292.914062 363.410156 288.933594 368.324219 288.933594 C 373.246094 288.933594 377.230469 292.914062 377.230469 297.828125 " fill-opacity="1" fill-rule="nonzero"/><path fill="#e6e6e6" d="M 368.324219 303.5625 C 365.164062 303.5625 362.59375 300.980469 362.59375 297.828125 C 362.59375 294.671875 365.164062 292.09375 368.324219 292.09375 C 371.492188 292.09375 374.070312 294.671875 374.070312 297.828125 C 374.070312 300.980469 371.492188 303.5625 368.324219 303.5625 " fill-opacity="1" fill-rule="nonzero"/><path fill="#54c5f8" d="M 86.859375 168.40625 C 85.601562 168.40625 84.496094 168.363281 83.519531 168.269531 L 140.402344 80.527344 C 146.019531 80.03125 151.992188 79.570312 158.136719 79.1875 L 100.765625 167.59375 C 94.78125 168.085938 90.265625 168.40625 86.859375 168.40625 " fill-opacity="1" fill-rule="nonzero"/><path fill="#e3695f" d="M 245.710938 76.542969 C 245.136719 76.523438 244.570312 76.5 244.003906 76.480469 C 244.570312 76.5 245.136719 76.519531 245.714844 76.539062 L 245.710938 76.542969 " fill-opacity="1" fill-rule="nonzero"/><path fill="#54c5f8" d="M 133.582031 165.089844 L 190.570312 77.246094 C 205.089844 76.503906 217.949219 76.078125 225.683594 76.078125 C 230.25 76.078125 236.585938 76.234375 244.003906 76.480469 C 244.570312 76.5 245.136719 76.523438 245.710938 76.542969 L 189.828125 162.761719 C 166.683594 163.257812 148.242188 164.136719 133.582031 165.089844 " fill-opacity="1" fill-rule="nonzero"/><path fill="#e3695f" d="M 293.609375 79.15625 C 291.890625 79.035156 290.164062 78.914062 288.425781 78.796875 C 290.164062 78.914062 291.890625 79.035156 293.609375 79.15625 " fill-opacity="1" fill-rule="nonzero"/><path fill="#54c5f8" d="M 267.582031 162.898438 C 257.730469 162.660156 246.972656 162.488281 235.214844 162.445312 C 234.882812 162.445312 234.535156 162.445312 234.199219 162.441406 L 288.425781 78.796875 C 290.164062 78.914062 291.890625 79.035156 293.609375 79.15625 C 303.21875 79.839844 312.457031 80.601562 320.402344 81.441406 L 267.582031 162.898438 " fill-opacity="1" fill-rule="nonzero"/><path fill="#e3695f" d="M 353.003906 103.71875 C 352.644531 102.894531 352.292969 102.089844 351.949219 101.304688 C 352.292969 102.085938 352.648438 102.894531 353.007812 103.714844 L 353.003906 103.71875 " fill-opacity="1" fill-rule="nonzero"/><path fill="#54c5f8" d="M 313.371094 164.808594 C 309.554688 164.597656 305.492188 164.347656 301.179688 164.136719 L 347.851562 92.140625 C 348.972656 94.648438 350.386719 97.773438 351.949219 101.304688 C 352.292969 102.089844 352.644531 102.894531 353.003906 103.71875 L 313.371094 164.808594 " fill-opacity="1" fill-rule="nonzero"/><path fill="#d3362d" d="M 106.589844 91.15625 C 116.660156 86.480469 199.921875 81.824219 225.683594 81.824219 C 251.457031 81.824219 334.722656 86.480469 344.792969 91.15625 C 344.792969 91.15625 370.28125 146.074219 373.691406 165.425781 C 377.878906 156.710938 344.792969 85.398438 344.792969 85.398438 C 334.722656 80.726562 251.457031 76.070312 225.683594 76.070312 L 225.683594 76.078125 C 199.921875 76.078125 116.660156 80.726562 106.589844 85.398438 C 106.589844 85.398438 73.492188 156.707031 77.679688 165.425781 C 81.097656 146.070312 106.589844 91.15625 106.589844 91.15625 " fill-opacity="1" fill-rule="nonzero"/><g clip-path="url(#fbbf4abc00)"><g clip-path="url(#e8b1c6650e)"><path fill="#38b6ff" d="M 135.300781 126.679688 L 139.050781 126.679688 L 139.050781 130.429688 L 135.300781 130.429688 Z M 135.300781 126.679688 " fill-opacity="1" fill-rule="nonzero"/></g></g></svg>